<svg id="visual" viewBox="0 0 1920 1080" width="1920" height="1080" xmlns="http://www.w3.org/2000/svg" xmlns:xlink="http://www.w3.org/1999/xlink" version="1.1"><path d="M0 195L29.2 211.3C58.3 227.7 116.7 260.3 174.8 283.8C233 307.3 291 321.7 349.2 316.2C407.3 310.7 465.7 285.3 523.8 303.3C582 321.3 640 382.7 698.2 389.8C756.3 397 814.7 350 872.8 326.5C931 303 989 303 1047.2 295.8C1105.3 288.7 1163.7 274.3 1221.8 256.3C1280 238.3 1338 216.7 1396.2 259.8C1454.3 303 1512.7 411 1570.8 436.3C1629 461.7 1687 404.3 1745.2 355.8C1803.3 307.3 1861.7 267.7 1890.8 247.8L1920 228L1920 0L1890.8 0C1861.7 0 1803.3 0 1745.2 0C1687 0 1629 0 1570.8 0C1512.7 0 1454.3 0 1396.2 0C1338 0 1280 0 1221.8 0C1163.7 0 1105.3 0 1047.2 0C989 0 931 0 872.8 0C814.7 0 756.3 0 698.2 0C640 0 582 0 523.8 0C465.7 0 407.3 0 349.2 0C291 0 233 0 174.8 0C116.7 0 58.3 0 29.2 0L0 0Z" fill="#6198ff"></path><path d="M0 476L29.2 477.8C58.3 479.7 116.7 483.3 174.8 514C233 544.7 291 602.3 349.2 615C407.3 627.7 465.7 595.3 523.8 600.7C582 606 640 649 698.2 658C756.3 667 814.7 642 872.8 625.8C931 609.7 989 602.3 1047.2 602.3C1105.3 602.3 1163.7 609.7 1221.8 595.3C1280 581 1338 545 1396.2 557.5C1454.3 570 1512.7 631 1570.8 641.7C1629 652.3 1687 612.7 1745.2 623.5C1803.3 634.3 1861.7 695.7 1890.8 726.3L1920 757L1920 226L1890.8 245.8C1861.7 265.7 1803.3 305.3 1745.2 353.8C1687 402.3 1629 459.7 1570.8 434.3C1512.7 409 1454.3 301 1396.2 257.8C1338 214.7 1280 236.3 1221.8 254.3C1163.7 272.3 1105.3 286.7 1047.2 293.8C989 301 931 301 872.8 324.5C814.7 348 756.3 395 698.2 387.8C640 380.7 582 319.3 523.8 301.3C465.7 283.3 407.3 308.7 349.2 314.2C291 319.7 233 305.3 174.8 281.8C116.7 258.3 58.3 225.7 29.2 209.3L0 193Z" fill="#3c80ff"></path><path d="M0 725L29.2 730.3C58.3 735.7 116.7 746.3 174.8 764.3C233 782.3 291 807.7 349.2 809.5C407.3 811.3 465.7 789.7 523.8 787.8C582 786 640 804 698.2 818.3C756.3 832.7 814.7 843.3 872.8 848.7C931 854 989 854 1047.2 837.8C1105.3 821.7 1163.7 789.3 1221.8 773.2C1280 757 1338 757 1396.2 773.2C1454.3 789.3 1512.7 821.7 1570.8 827C1629 832.3 1687 810.7 1745.2 812.5C1803.3 814.3 1861.7 839.7 1890.8 852.3L1920 865L1920 755L1890.8 724.3C1861.7 693.7 1803.3 632.3 1745.2 621.5C1687 610.7 1629 650.3 1570.8 639.7C1512.7 629 1454.3 568 1396.2 555.5C1338 543 1280 579 1221.8 593.3C1163.7 607.7 1105.3 600.3 1047.2 600.3C989 600.3 931 607.7 872.8 623.8C814.7 640 756.3 665 698.2 656C640 647 582 604 523.8 598.7C465.7 593.3 407.3 625.7 349.2 613C291 600.3 233 542.7 174.8 512C116.7 481.3 58.3 477.7 29.2 475.8L0 474Z" fill="#0066ff"></path><path d="M0 908L29.2 913.5C58.3 919 116.7 930 174.8 942.7C233 955.3 291 969.7 349.2 960.7C407.3 951.7 465.7 919.3 523.8 904.8C582 890.3 640 893.7 698.2 908C756.3 922.3 814.7 947.7 872.8 956.7C931 965.7 989 958.3 1047.2 949.3C1105.3 940.3 1163.7 929.7 1221.8 915.3C1280 901 1338 883 1396.2 883C1454.3 883 1512.7 901 1570.8 904.7C1629 908.3 1687 897.7 1745.2 904.8C1803.3 912 1861.7 937 1890.8 949.5L1920 962L1920 863L1890.8 850.3C1861.7 837.7 1803.3 812.3 1745.2 810.5C1687 808.7 1629 830.3 1570.8 825C1512.7 819.7 1454.3 787.3 1396.2 771.2C1338 755 1280 755 1221.8 771.2C1163.7 787.3 1105.3 819.7 1047.2 835.8C989 852 931 852 872.8 846.7C814.7 841.3 756.3 830.7 698.2 816.3C640 802 582 784 523.8 785.8C465.7 787.7 407.3 809.3 349.2 807.5C291 805.7 233 780.3 174.8 762.3C116.7 744.3 58.3 733.7 29.2 728.3L0 723Z" fill="#0059dd"></path><path d="M0 1081L29.2 1081C58.3 1081 116.7 1081 174.8 1081C233 1081 291 1081 349.2 1081C407.3 1081 465.7 1081 523.8 1081C582 1081 640 1081 698.2 1081C756.3 1081 814.7 1081 872.8 1081C931 1081 989 1081 1047.2 1081C1105.3 1081 1163.7 1081 1221.8 1081C1280 1081 1338 1081 1396.2 1081C1454.3 1081 1512.7 1081 1570.8 1081C1629 1081 1687 1081 1745.2 1081C1803.3 1081 1861.7 1081 1890.8 1081L1920 1081L1920 960L1890.8 947.5C1861.7 935 1803.3 910 1745.2 902.8C1687 895.7 1629 906.3 1570.8 902.7C1512.7 899 1454.3 881 1396.2 881C1338 881 1280 899 1221.8 913.3C1163.7 927.7 1105.3 938.3 1047.2 947.3C989 956.3 931 963.7 872.8 954.7C814.7 945.7 756.3 920.3 698.2 906C640 891.7 582 888.3 523.8 902.8C465.7 917.3 407.3 949.7 349.2 958.7C291 967.7 233 953.3 174.8 940.7C116.7 928 58.3 917 29.2 911.5L0 906Z" fill="#004cbb"></path></svg>